<svg xmlns="http://www.w3.org/2000/svg" xmlns:xlink="http://www.w3.org/1999/xlink" width="520" height="480" viewBox="0 0 520 480"><defs><clipPath id="a"><rect width="520" height="480" transform="translate(900 5291)" fill="#fff" stroke="#707070" stroke-width="1"/></clipPath></defs><g transform="translate(-900 -5291)" clip-path="url(#a)"><g transform="translate(517.28 5270.5)"><g transform="translate(618.594 199.905)"><path d="M132.989,50.48c-10-3.125-20.629,3.126-23.754,13.127-5,16.253-5,32.506-3.751,47.509.625,10,8.751,18.128,18.753,18.128h.625a16.615,16.615,0,0,0,13.127-6.251c3.126-3.751,5.626-8.752,5-14.378-.625-12.5-.625-25,2.5-35.632A17.258,17.258,0,0,0,132.989,50.48Z" transform="translate(-104.789 -44.102)" fill="#fff"/><path d="M156.058,65.785a18.56,18.56,0,0,0-20.629-16.878c-10,.625-18.128,10-17.5,20a44.254,44.254,0,0,1-2.5,20c-3.126,10,2.5,21.254,12.5,23.754,1.25.625,3.75.625,5.626.625a18.961,18.961,0,0,0,18.128-13.127A93.044,93.044,0,0,0,156.058,65.785Z" transform="translate(-53.471 -48.78)" fill="#fff"/></g><path d="M895.588,246.916a30.772,30.772,0,0,0-30.005-10c-3.751-31.881-10-68.137-21.254-100.018C811.823,40,756.813,20,716.181,20c-38.132,0-75.013,15-110.02,44.383-32.506,27.5-65.012,68.762-94.392,122.522-61.261,108.144-117.521,271.924-168.78,487.588a34.458,34.458,0,0,0,3.751,26.255,37.669,37.669,0,0,0,21.879,15.628,33.036,33.036,0,0,0,7.5.625A34.718,34.718,0,0,0,410.5,689.5C460.51,480.083,514.27,321.929,571.78,220.036c25.63-46.258,52.509-81.265,78.764-103.143,22.5-18.753,43.758-28.13,65.637-28.13,12.5,0,22.5,5.626,32.506,16.253,10.627,11.877,20,30.631,28.755,53.76C791.194,200.032,796.82,249.416,798.7,283.8c-28.755,20-56.885,35.631-83.765,46.258-40.632,15.628-67.512,15.628-83.14,12.5-13.128-2.5-22.5-8.752-26.255-15-7.5-15.628-27.505-21.879-43.133-13.753a32.1,32.1,0,0,0-13.752,43.133c12.5,25,38.132,42.508,71.263,48.134,8.751,1.25,18.128,3.126,30.63,3.126,33.756,0,81.265-9.377,143.15-44.383-3.126,18.753-6.876,37.507-12.5,55.01-11.877,37.507-28.13,68.762-47.509,90.016a36.578,36.578,0,0,0-9.377,25c0,9.377,5,18.128,10.627,24.379,13.752,13.128,36.882,12.5,49.384-1.25,26.254-28.755,48.133-69.387,63.136-117.521,12.5-38.757,19.378-82.515,20.628-126.273,7.5-6.251,15.628-12.5,23.754-19.378C904.965,280.672,906.215,260.043,895.588,246.916Z" transform="translate(0 0)" fill="#fff"/></g></g></svg>