<svg xmlns="http://www.w3.org/2000/svg" xmlns:xlink="http://www.w3.org/1999/xlink" width="239.559" height="52.092" viewBox="0 0 239.559 52.092"><defs><clipPath id="a"><rect width="239.559" height="52.092" fill="none"/></clipPath></defs><g transform="translate(0 0)" clip-path="url(#a)"><path d="M149.747,5.6a4.1,4.1,0,0,1,2.045.468,3.1,3.1,0,0,1,1.255,1.3,4.106,4.106,0,0,1,.431,1.919c0,.128,0,.281-.015.457s-.025.341-.048.5-.056.329-.082.5-.061.334-.1.492a4.888,4.888,0,0,1-.911,2.066,4.262,4.262,0,0,1-1.737,1.314,6.38,6.38,0,0,1-2.511.454h-3.19L146.556,5.6Zm-2.7,7.92h.9a3.961,3.961,0,0,0,2.209-.594,2.807,2.807,0,0,0,1.182-1.875c.032-.144.061-.291.086-.441s.052-.3.081-.447q.02-.173.034-.4c.01-.151.015-.277.015-.379a2.456,2.456,0,0,0-.3-1.279,1.773,1.773,0,0,0-.839-.728,3.189,3.189,0,0,0-1.269-.233h-.971Z" transform="translate(35.031 1.354)" fill="#2c2a25"/><path d="M152.875,10.062a3.5,3.5,0,0,1,.645-1.535,3.227,3.227,0,0,1,1.209-.988,3.669,3.669,0,0,1,1.612-.346,3.8,3.8,0,0,1,1.734.374,2.743,2.743,0,0,1,1.151,1.068,3.174,3.174,0,0,1,.41,1.644c0,.156-.007.309-.016.457a3.95,3.95,0,0,1-.061.431l-.145.762a3.8,3.8,0,0,1-.631,1.536,3.1,3.1,0,0,1-1.192,1,3.864,3.864,0,0,1-1.691.35,3.708,3.708,0,0,1-1.684-.365,2.729,2.729,0,0,1-1.142-1.038,3.021,3.021,0,0,1-.415-1.606c0-.176.006-.346.019-.512a3.849,3.849,0,0,1,.06-.473Zm1.7,1.048c-.02.1-.032.207-.046.319a3.6,3.6,0,0,0-.016.36,1.685,1.685,0,0,0,.387,1.155,1.351,1.351,0,0,0,1.068.441,1.37,1.37,0,0,0,1.063-.462,2.575,2.575,0,0,0,.56-1.314l.133-.811a2.3,2.3,0,0,0,.032-.35c0-.128.007-.219.007-.274a1.626,1.626,0,0,0-.384-1.124,1.346,1.346,0,0,0-1.058-.43,1.47,1.47,0,0,0-.736.188,1.542,1.542,0,0,0-.561.569,2.745,2.745,0,0,0-.324.971Z" transform="translate(36.911 1.739)" fill="#2c2a25"/><path d="M164.881,15.066a2.052,2.052,0,0,1-.739-.551,1.76,1.76,0,0,1-.379-.751h-.089l-.25,1.4h-1.832l1.77-9.967H165.2l-.7,3.891h.112a2.5,2.5,0,0,1,.371-.617,2.07,2.07,0,0,1,.676-.541,2.236,2.236,0,0,1,1.047-.221,2.3,2.3,0,0,1,1.787.738,2.869,2.869,0,0,1,.668,2c0,.138,0,.292-.017.461s-.031.338-.06.509l-.171.964a4.344,4.344,0,0,1-.553,1.541,2.811,2.811,0,0,1-1.023,1,2.883,2.883,0,0,1-1.449.353,2.36,2.36,0,0,1-1-.207m-.642-2.049a1.41,1.41,0,0,0,.524.565,1.332,1.332,0,0,0,.7.194,1.414,1.414,0,0,0,.787-.217,1.748,1.748,0,0,0,.559-.6,2.571,2.571,0,0,0,.3-.878l.147-.791a2.187,2.187,0,0,0,.025-.308c0-.122,0-.225,0-.309a1.808,1.808,0,0,0-.163-.8,1.219,1.219,0,0,0-.472-.528,1.417,1.417,0,0,0-.751-.186,1.454,1.454,0,0,0-.8.221,1.742,1.742,0,0,0-.576.627,2.886,2.886,0,0,0-.318.947l-.125.776a1.894,1.894,0,0,0-.03.226c-.007.076-.011.135-.011.176a1.858,1.858,0,0,0,.2.884" transform="translate(39.071 1.257)" fill="#2c2a25"/><path d="M169.9,14.491a2.538,2.538,0,0,1-1.106-.967,3,3,0,0,1-.406-1.623,4.993,4.993,0,0,1,.031-.548c.021-.181.046-.343.073-.486l.138-.791a3.67,3.67,0,0,1,.667-1.6,3.1,3.1,0,0,1,1.221-.964,3.858,3.858,0,0,1,1.587-.323,3.29,3.29,0,0,1,1.342.253,2.594,2.594,0,0,1,.947.7,2.794,2.794,0,0,1,.541,1.008,3.214,3.214,0,0,1,.109,1.2c-.012.125-.034.271-.058.437s-.063.37-.114.61h-4.66a1.8,1.8,0,0,0-.045.274,2.832,2.832,0,0,0-.017.309,1.76,1.76,0,0,0,.142.7,1.176,1.176,0,0,0,.461.531,1.554,1.554,0,0,0,.832.2,1.828,1.828,0,0,0,.642-.1,1.252,1.252,0,0,0,.462-.288.924.924,0,0,0,.242-.42h1.741a2.215,2.215,0,0,1-.489,1.075,2.946,2.946,0,0,1-1.1.821,3.835,3.835,0,0,1-1.613.317,3.724,3.724,0,0,1-1.573-.323m3.409-4.289a.656.656,0,0,1,.01-.091,1.671,1.671,0,0,0-.056-.776,1.085,1.085,0,0,0-.42-.565,1.322,1.322,0,0,0-.78-.212,1.6,1.6,0,0,0-.687.149,1.465,1.465,0,0,0-.551.458,2,2,0,0,0-.337.772c-.014.061-.026.122-.039.181s-.024.119-.037.18h2.877a.46.46,0,0,0,.019-.1" transform="translate(40.714 1.739)" fill="#2c2a25"/><path d="M176.085,5.88h1.768l-.319,1.832h1.546l-.25,1.4H177.3l-.548,3.134c-.036.217-.062.375-.076.474a1.916,1.916,0,0,0-.021.253.639.639,0,0,0,.212.538,1.059,1.059,0,0,0,.648.163c.134,0,.271-.007.409-.02s.248-.029.327-.042l-.242,1.339a4.239,4.239,0,0,1-.448.068,5.571,5.571,0,0,1-.648.036,2.838,2.838,0,0,1-1.606-.375,1.3,1.3,0,0,1-.545-1.145,5.059,5.059,0,0,1,.077-.776l.646-3.647h-1.062l.25-1.4h1.074Z" transform="translate(42.174 1.422)" fill="#2c2a25"/><path d="M179.415,5.88h1.768l-.319,1.832h1.546l-.25,1.4h-1.526l-.548,3.134c-.036.217-.062.375-.076.474a1.921,1.921,0,0,0-.021.253.639.639,0,0,0,.212.538,1.059,1.059,0,0,0,.648.163c.134,0,.271-.007.409-.02s.248-.029.327-.042l-.242,1.339a4.239,4.239,0,0,1-.448.068,5.572,5.572,0,0,1-.648.036,2.838,2.838,0,0,1-1.606-.375,1.3,1.3,0,0,1-.545-1.145,5.059,5.059,0,0,1,.077-.776l.646-3.647h-1.062l.25-1.4h1.074Z" transform="translate(42.979 1.422)" fill="#2c2a25"/><path d="M183.352,14.491a2.537,2.537,0,0,1-1.106-.967,3,3,0,0,1-.406-1.623,4.981,4.981,0,0,1,.031-.548c.021-.181.046-.343.073-.486l.138-.791a3.67,3.67,0,0,1,.667-1.6,3.1,3.1,0,0,1,1.221-.964,3.858,3.858,0,0,1,1.587-.323,3.29,3.29,0,0,1,1.342.253,2.594,2.594,0,0,1,.947.7,2.794,2.794,0,0,1,.541,1.008,3.215,3.215,0,0,1,.109,1.2c-.012.125-.034.271-.058.437s-.063.37-.114.61h-4.66a1.806,1.806,0,0,0-.045.274,2.828,2.828,0,0,0-.017.309,1.759,1.759,0,0,0,.142.7,1.176,1.176,0,0,0,.461.531,1.554,1.554,0,0,0,.832.2,1.828,1.828,0,0,0,.642-.1,1.252,1.252,0,0,0,.462-.288.924.924,0,0,0,.242-.42h1.741a2.216,2.216,0,0,1-.489,1.075,2.946,2.946,0,0,1-1.1.821,3.834,3.834,0,0,1-1.613.317,3.724,3.724,0,0,1-1.573-.323m3.409-4.289a.656.656,0,0,1,.01-.091,1.671,1.671,0,0,0-.056-.776,1.085,1.085,0,0,0-.42-.565,1.322,1.322,0,0,0-.78-.212,1.6,1.6,0,0,0-.687.149,1.466,1.466,0,0,0-.551.458,2,2,0,0,0-.337.772c-.014.061-.026.122-.038.181s-.024.119-.037.18h2.877a.456.456,0,0,0,.019-.1" transform="translate(43.966 1.739)" fill="#2c2a25"/><path d="M189.081,7.321h1.734L190.6,8.535h.1a2.1,2.1,0,0,1,.673-.923,1.918,1.918,0,0,1,1.268-.41,1.954,1.954,0,0,1,.468.052c.137.036.233.062.288.081l-.34,1.614a1.878,1.878,0,0,0-.364-.1,2.262,2.262,0,0,0-.447-.048,1.757,1.757,0,0,0-.992.263,1.841,1.841,0,0,0-.623.715,3.715,3.715,0,0,0-.334,1.012l-.685,3.891h-1.832Z" transform="translate(45.403 1.742)" fill="#2c2a25"/><path d="M190.347,16.089l1.283-4.251h1.906l-1.65,4.251Z" transform="translate(46.023 2.863)" fill="#2c2a25"/><path d="M154.111,26.835a2.052,2.052,0,0,1-.739-.551,1.76,1.76,0,0,1-.379-.751H152.9l-.25,1.4h-1.832l1.77-9.967h1.837l-.7,3.891h.112a2.5,2.5,0,0,1,.371-.617,2.07,2.07,0,0,1,.676-.541,2.236,2.236,0,0,1,1.047-.221,2.3,2.3,0,0,1,1.787.738,2.87,2.87,0,0,1,.668,2c0,.138,0,.292-.017.461s-.031.338-.06.509l-.171.964a4.345,4.345,0,0,1-.553,1.541,2.811,2.811,0,0,1-1.023,1,2.883,2.883,0,0,1-1.449.353,2.36,2.36,0,0,1-1-.207m-.642-2.049a1.41,1.41,0,0,0,.524.565,1.332,1.332,0,0,0,.7.194,1.414,1.414,0,0,0,.787-.217,1.748,1.748,0,0,0,.559-.6,2.571,2.571,0,0,0,.3-.878l.147-.791a2.185,2.185,0,0,0,.025-.308c0-.122,0-.225,0-.309a1.807,1.807,0,0,0-.163-.8,1.219,1.219,0,0,0-.472-.528,1.417,1.417,0,0,0-.751-.186,1.454,1.454,0,0,0-.8.221,1.742,1.742,0,0,0-.576.627,2.888,2.888,0,0,0-.318.947l-.125.776a1.906,1.906,0,0,0-.03.226c-.007.076-.011.135-.011.176a1.859,1.859,0,0,0,.2.884" transform="translate(36.467 4.103)" fill="#2c2a25"/><path d="M159.361,26.261a2.545,2.545,0,0,1-1.106-.967,3,3,0,0,1-.406-1.624,4.984,4.984,0,0,1,.031-.546c.021-.181.046-.343.073-.486l.138-.791a3.669,3.669,0,0,1,.667-1.6,3.1,3.1,0,0,1,1.221-.964,3.858,3.858,0,0,1,1.587-.323,3.29,3.29,0,0,1,1.342.253,2.594,2.594,0,0,1,.947.7,2.794,2.794,0,0,1,.541,1.008,3.214,3.214,0,0,1,.109,1.2c-.012.125-.034.271-.058.437s-.063.37-.114.61h-4.66a1.8,1.8,0,0,0-.045.274,2.824,2.824,0,0,0-.017.309,1.76,1.76,0,0,0,.142.7,1.176,1.176,0,0,0,.461.531,1.554,1.554,0,0,0,.832.2,1.828,1.828,0,0,0,.642-.1,1.268,1.268,0,0,0,.462-.288.93.93,0,0,0,.242-.42h1.741a2.216,2.216,0,0,1-.489,1.075,2.946,2.946,0,0,1-1.1.821,3.835,3.835,0,0,1-1.613.317,3.724,3.724,0,0,1-1.573-.323m3.409-4.29a.654.654,0,0,1,.01-.089,1.671,1.671,0,0,0-.056-.776,1.085,1.085,0,0,0-.42-.565,1.322,1.322,0,0,0-.78-.212,1.6,1.6,0,0,0-.687.149,1.466,1.466,0,0,0-.551.458,2,2,0,0,0-.337.772c-.014.061-.026.122-.039.181s-.024.119-.037.18h2.877a.455.455,0,0,0,.019-.1" transform="translate(38.166 4.585)" fill="#2c2a25"/><path d="M174.05,26.426h-1.941l-.389-5.291h-.07l-2.074,5.291H167.6l-.75-7.359h1.824l.222,5.625h.083l2.178-5.625h1.7l.36,5.625h.083l2.08-5.625h1.845Z" transform="translate(40.342 4.61)" fill="#2c2a25"/><path d="M176.729,26.261a2.545,2.545,0,0,1-1.106-.967,3,3,0,0,1-.406-1.624,4.984,4.984,0,0,1,.031-.546c.021-.181.046-.343.073-.486l.138-.791a3.67,3.67,0,0,1,.667-1.6,3.1,3.1,0,0,1,1.221-.964,3.858,3.858,0,0,1,1.587-.323,3.29,3.29,0,0,1,1.342.253,2.594,2.594,0,0,1,.947.7,2.794,2.794,0,0,1,.541,1.008,3.214,3.214,0,0,1,.109,1.2c-.012.125-.034.271-.058.437s-.063.37-.114.61h-4.66a1.807,1.807,0,0,0-.045.274,2.835,2.835,0,0,0-.017.309,1.759,1.759,0,0,0,.142.7,1.176,1.176,0,0,0,.461.531,1.554,1.554,0,0,0,.832.2,1.828,1.828,0,0,0,.642-.1,1.268,1.268,0,0,0,.462-.288.93.93,0,0,0,.242-.42H181.5a2.216,2.216,0,0,1-.489,1.075,2.946,2.946,0,0,1-1.1.821,3.835,3.835,0,0,1-1.613.317,3.724,3.724,0,0,1-1.573-.323m3.409-4.29a.656.656,0,0,1,.01-.089,1.672,1.672,0,0,0-.056-.776,1.085,1.085,0,0,0-.42-.565,1.322,1.322,0,0,0-.78-.212,1.6,1.6,0,0,0-.687.149,1.466,1.466,0,0,0-.551.458,2,2,0,0,0-.336.772c-.014.061-.026.122-.038.181s-.024.119-.037.18h2.877a.454.454,0,0,0,.019-.1" transform="translate(42.365 4.585)" fill="#2c2a25"/><path d="M183.212,16.968h1.837l-1.767,9.965H181.45Z" transform="translate(43.872 4.103)" fill="#2c2a25"/><path d="M186.49,16.968h1.837l-1.767,9.965h-1.832Z" transform="translate(44.665 4.103)" fill="#2c2a25"/><path d="M132.062,2.741V21.472L117.229,2.741h-5.417v32.5h6.177V14.688l16.452,20.554h3.847V2.741Z" transform="translate(27.035 0.663)" fill="#2c2a25"/><path d="M91.153,35.242h18.1v-5.67H98.088V21.523H106.9V16.055H98.088v-7.8h11.164V2.741h-18.1Z" transform="translate(22.039 0.663)" fill="#2c2a25"/><path d="M66.922,2.741V8.259H80.793L65.4,35.242H90.158V29.42H76.034L91.678,2.741Z" transform="translate(15.814 0.663)" fill="#2c2a25"/><rect width="6.914" height="32.402" transform="translate(67.379 3.503)" fill="#2c2a25"/><rect width="6.914" height="32.402" transform="translate(0 3.503)" fill="#2c2a25"/><path d="M57.636,16.244a36.385,36.385,0,0,0-1.589-7.481C53.579,1.521,49.485,0,46.484,0a12.752,12.752,0,0,0-8.242,3.314,32.832,32.832,0,0,0-7.078,9.136,104.7,104.7,0,0,0-7.858,19.167L13.727,18.744,25.285,3.5H17.664L6.056,19.7,18.068,35.9H22q-1.753,6-3.409,12.968a2.615,2.615,0,1,0,5.089,1.207c3.705-15.627,7.757-27.426,12.044-35.069A27.74,27.74,0,0,1,41.6,7.322a7.615,7.615,0,0,1,4.881-2.092,3.231,3.231,0,0,1,2.469,1.212A11.413,11.413,0,0,1,51.1,10.45a34.22,34.22,0,0,1,1.557,9.323,29.9,29.9,0,0,1-6.24,3.43,11.313,11.313,0,0,1-6.169.915,2.8,2.8,0,0,1-1.978-1.131,2.389,2.389,0,1,0-4.248,2.186A7.291,7.291,0,0,0,39.323,28.8a11.686,11.686,0,0,0,2.25.209c2.5,0,6.086-.708,10.692-3.339a29.215,29.215,0,0,1-.923,4.083,17.54,17.54,0,0,1-3.575,6.714A2.615,2.615,0,0,0,51.6,40.026,22.724,22.724,0,0,0,56.34,31.3a36.418,36.418,0,0,0,1.514-9.451c.579-.458,1.166-.936,1.768-1.452a2.382,2.382,0,0,0-1.986-4.154" transform="translate(1.464 0)" fill="#2c2a25"/><path d="M34.886,11.256a1.422,1.422,0,0,0-1.75.99,11.219,11.219,0,0,0-.274,3.58,1.418,1.418,0,0,0,1.419,1.359h.063A1.422,1.422,0,0,0,35.7,15.7a8.682,8.682,0,0,1,.174-2.695,1.424,1.424,0,0,0-.99-1.75" transform="translate(7.939 2.709)" fill="#ea5b3c"/><path d="M39.526,12.153a1.421,1.421,0,1,0-2.834.222,3.979,3.979,0,0,1-.165,1.488,1.421,1.421,0,0,0,2.716.837,6.83,6.83,0,0,0,.283-2.547" transform="translate(8.817 2.622)" fill="#ea5b3c"/></g></svg>